<svg width="24" height="24" viewBox="0 0 24 24" fill="none" xmlns="http://www.w3.org/2000/svg">
<path d="M1.29167 0.375H21.9583C22.3009 0.375 22.6294 0.511086 22.8717 0.75332C23.1139 0.995555 23.25 1.3241 23.25 1.66667V22.3333C23.25 22.6759 23.1139 23.0044 22.8717 23.2467C22.6294 23.4889 22.3009 23.625 21.9583 23.625H1.29167C0.949095 23.625 0.620555 23.4889 0.37832 23.2467C0.136086 23.0044 0 22.6759 0 22.3333V1.66667C0 1.3241 0.136086 0.995555 0.37832 0.75332C0.620555 0.511086 0.949095 0.375 1.29167 0.375ZM10.3333 13.023V17.1667H12.9167V13.023C13.5966 12.7263 14.1536 12.2044 14.4941 11.5453C14.8345 10.8862 14.9376 10.1299 14.7861 9.40367C14.6345 8.67745 14.2375 8.02556 13.6618 7.55763C13.0861 7.0897 12.3669 6.83425 11.625 6.83425C10.8831 6.83425 10.1639 7.0897 9.5882 7.55763C9.01252 8.02556 8.61552 8.67745 8.46395 9.40367C8.31238 10.1299 8.41548 10.8862 8.75593 11.5453C9.09638 12.2044 9.6534 12.7263 10.3333 13.023Z" fill="url(#paint0_linear_2_15)"/>
<defs>
<linearGradient id="paint0_linear_2_15" x1="0.124999" y1="5.90949e-07" x2="21.625" y2="26" gradientUnits="userSpaceOnUse">
<stop stop-color="#1BA6D2"/>
<stop offset="1" stop-color="#1859BC" stop-opacity="0.91"/>
</linearGradient>
</defs>
</svg>
